<svg width="18" height="10" viewBox="0 0 18 10" fill="none" xmlns="http://www.w3.org/2000/svg">
<path fill-rule="evenodd" clip-rule="evenodd" d="M18 5C18 5.55229 17.5523 6 17 6L3.46946 6L5.82483 8.28176C6.2215 8.66604 6.23155 9.29912 5.84727 9.6958C5.463 10.0925 4.82991 10.1025 4.43324 9.71824L0.304205 5.71824C0.109762 5.52987 0 5.27072 0 5C0 4.72928 0.109762 4.47013 0.304205 4.28176L4.43324 0.281761C4.82991 -0.102516 5.463 -0.0924676 5.84727 0.304206C6.23155 0.700879 6.2215 1.33396 5.82483 1.71824L3.46946 4L17 4C17.5523 4 18 4.44772 18 5Z" fill="#FDFDFD"/>
</svg>
